<svg xmlns="http://www.w3.org/2000/svg" viewBox="0 0 800 400" fill="none">
  <rect width="800" height="400" fill="#1C1917"/>
  <rect x="40" y="40" width="720" height="320" rx="8" fill="#292524" stroke="#44403C"/>
  <!-- Grid of 10 ASI boxes -->
  <g transform="translate(70,80)">
    <rect width="120" height="50" rx="4" fill="#B5422C"/>
    <text x="60" y="30" text-anchor="middle" fill="#fff" font-family="sans-serif" font-size="14" font-weight="600">ASI01</text>
  </g>
  <g transform="translate(200,80)">
    <rect width="120" height="50" rx="4" fill="#B5422C"/>
    <text x="60" y="30" text-anchor="middle" fill="#fff" font-family="sans-serif" font-size="14" font-weight="600">ASI02</text>
  </g>
  <g transform="translate(330,80)">
    <rect width="120" height="50" rx="4" fill="#B5422C"/>
    <text x="60" y="30" text-anchor="middle" fill="#fff" font-family="sans-serif" font-size="14" font-weight="600">ASI03</text>
  </g>
  <g transform="translate(460,80)">
    <rect width="120" height="50" rx="4" fill="#B7791F"/>
    <text x="60" y="30" text-anchor="middle" fill="#fff" font-family="sans-serif" font-size="14" font-weight="600">ASI04</text>
  </g>
  <g transform="translate(590,80)">
    <rect width="120" height="50" rx="4" fill="#B7791F"/>
    <text x="60" y="30" text-anchor="middle" fill="#fff" font-family="sans-serif" font-size="14" font-weight="600">ASI05</text>
  </g>
  <g transform="translate(70,150)">
    <rect width="120" height="50" rx="4" fill="#B7791F"/>
    <text x="60" y="30" text-anchor="middle" fill="#fff" font-family="sans-serif" font-size="14" font-weight="600">ASI06</text>
  </g>
  <g transform="translate(200,150)">
    <rect width="120" height="50" rx="4" fill="#B7791F"/>
    <text x="60" y="30" text-anchor="middle" fill="#fff" font-family="sans-serif" font-size="14" font-weight="600">ASI07</text>
  </g>
  <g transform="translate(330,150)">
    <rect width="120" height="50" rx="4" fill="#2F5D50"/>
    <text x="60" y="30" text-anchor="middle" fill="#fff" font-family="sans-serif" font-size="14" font-weight="600">ASI08</text>
  </g>
  <g transform="translate(460,150)">
    <rect width="120" height="50" rx="4" fill="#2F5D50"/>
    <text x="60" y="30" text-anchor="middle" fill="#fff" font-family="sans-serif" font-size="14" font-weight="600">ASI09</text>
  </g>
  <g transform="translate(590,150)">
    <rect width="120" height="50" rx="4" fill="#2F5D50"/>
    <text x="60" y="30" text-anchor="middle" fill="#fff" font-family="sans-serif" font-size="14" font-weight="600">ASI10</text>
  </g>
  <text x="400" y="260" text-anchor="middle" fill="#E9E4DA" font-family="sans-serif" font-size="24" font-weight="700">OWASP Agentic Top 10</text>
  <text x="400" y="290" text-anchor="middle" fill="#BEB7AA" font-family="sans-serif" font-size="16">2026 AI Agent Security Threats</text>
  <text x="400" y="330" text-anchor="middle" fill="#6B665C" font-family="sans-serif" font-size="12">AICRA</text>
</svg>
