<svg xmlns="http://www.w3.org/2000/svg" viewBox="0 0 800 400" fill="none">
  <rect width="800" height="400" fill="#1C1917"/>
  <rect x="40" y="40" width="720" height="320" rx="8" fill="#292524" stroke="#44403C"/>
  <!-- RAG Pipeline -->
  <g transform="translate(70,100)">
    <rect width="130" height="55" rx="6" fill="#2F5D50"/>
    <text x="65" y="32" text-anchor="middle" fill="#fff" font-family="sans-serif" font-size="12" font-weight="600">Documents</text>
  </g>
  <line x1="210" y1="127" x2="250" y2="127" stroke="#6B665C" stroke-width="2"/>
  <polygon points="250,122 262,127 250,132" fill="#6B665C"/>
  <g transform="translate(270,100)">
    <rect width="130" height="55" rx="6" fill="#2F5D50"/>
    <text x="65" y="32" text-anchor="middle" fill="#fff" font-family="sans-serif" font-size="12" font-weight="600">Embeddings</text>
  </g>
  <line x1="410" y1="127" x2="450" y2="127" stroke="#6B665C" stroke-width="2"/>
  <polygon points="450,122 462,127 450,132" fill="#6B665C"/>
  <g transform="translate(470,100)">
    <rect width="130" height="55" rx="6" fill="#B5422C"/>
    <text x="65" y="32" text-anchor="middle" fill="#fff" font-family="sans-serif" font-size="12" font-weight="600">Vector DB</text>
  </g>
  <line x1="610" y1="127" x2="650" y2="127" stroke="#6B665C" stroke-width="2"/>
  <polygon points="650,122 662,127 650,132" fill="#6B665C"/>
  <g transform="translate(670,100)">
    <rect width="80" height="55" rx="6" fill="#2F5D50"/>
    <text x="40" y="32" text-anchor="middle" fill="#fff" font-family="sans-serif" font-size="12" font-weight="600">LLM</text>
  </g>
  <!-- Attack indicators -->
  <text x="335" y="200" text-anchor="middle" fill="#B5422C" font-family="monospace" font-size="11">Data Poisoning</text>
  <text x="535" y="200" text-anchor="middle" fill="#B5422C" font-family="monospace" font-size="11">Embedding Attack</text>
  <text x="400" y="280" text-anchor="middle" fill="#E9E4DA" font-family="sans-serif" font-size="22" font-weight="700">RAG System Security</text>
  <text x="400" y="310" text-anchor="middle" fill="#BEB7AA" font-family="sans-serif" font-size="14">Threat Model &amp; Defense Architecture</text>
</svg>
